<svg width="32" height="32" viewBox="0 0 32 32" fill="none" xmlns="http://www.w3.org/2000/svg">
<g clip-path="url(#clip0_34_60)">
<g filter="url(#filter0_d_34_60)">
<path d="M15.7064 13.3994C15.7064 14.0488 15.5574 14.6449 15.2593 15.1878C14.9613 15.7201 14.5035 16.1512 13.8861 16.4812C13.2687 16.8112 12.5023 16.9762 11.5868 16.9762H9.89421V21H7.16374V9.79076H11.5868C12.481 9.79076 13.2368 9.94511 13.8542 10.2538C14.4716 10.5625 14.9347 10.9883 15.2434 11.5312C15.5521 12.0741 15.7064 12.6969 15.7064 13.3994ZM11.3792 14.8046C11.9008 14.8046 12.2894 14.6822 12.5448 14.4373C12.8003 14.1925 12.9281 13.8465 12.9281 13.3994C12.9281 12.9523 12.8003 12.6064 12.5448 12.3615C12.2894 12.1167 11.9008 11.9943 11.3792 11.9943H9.89421V14.8046H11.3792Z" fill="#263568"/>
<path d="M20.4105 21.1118C19.5908 21.1118 18.8563 20.9787 18.207 20.7126C17.5576 20.4465 17.036 20.0526 16.6421 19.531C16.2589 19.0094 16.0567 18.3813 16.0354 17.6468H18.9415C18.9841 18.062 19.1278 18.3813 19.3726 18.6049C19.6174 18.8178 19.9368 18.9242 20.3307 18.9242C20.7352 18.9242 21.0545 18.8338 21.2887 18.6528C21.5229 18.4612 21.64 18.2004 21.64 17.8704C21.64 17.5936 21.5442 17.3647 21.3526 17.1838C21.1716 17.0028 20.9428 16.8538 20.666 16.7367C20.3999 16.6196 20.0166 16.4865 19.5163 16.3375C18.7925 16.1139 18.2017 15.8904 17.7439 15.6668C17.2862 15.4433 16.8923 15.1133 16.5623 14.6769C16.2323 14.2404 16.0673 13.6709 16.0673 12.9683C16.0673 11.9251 16.4452 11.1107 17.201 10.5253C17.9568 9.92914 18.9415 9.63108 20.155 9.63108C21.3899 9.63108 22.3852 9.92914 23.141 10.5253C23.8968 11.1107 24.3013 11.9304 24.3545 12.9843H21.4005C21.3792 12.6224 21.2461 12.3403 21.0013 12.138C20.7565 11.9251 20.4424 11.8186 20.0592 11.8186C19.7292 11.8186 19.4631 11.9091 19.2608 12.0901C19.0586 12.2604 18.9575 12.5106 18.9575 12.8406C18.9575 13.2025 19.1278 13.4846 19.4684 13.6869C19.8091 13.8891 20.3413 14.1073 21.0652 14.3415C21.789 14.5864 22.3745 14.8206 22.8216 15.0441C23.2794 15.2677 23.6732 15.5923 24.0032 16.0181C24.3332 16.4439 24.4982 16.9922 24.4982 17.6628C24.4982 18.3015 24.3332 18.8817 24.0032 19.4033C23.6839 19.9249 23.2155 20.34 22.5981 20.6487C21.9807 20.9575 21.2515 21.1118 20.4105 21.1118Z" fill="#263568"/>
<path d="M3.80652 8.15557L3.80652 23.2393H4.08846L4.08846 8.15557H3.80652Z" fill="#5480B4"/>
<path d="M2.96063 10.5521L2.96063 20.8428H3.24257L3.24257 10.5521H2.96063Z" fill="#5480B4"/>
<path d="M1.97354 11.2569L1.97354 19.5741H2.25548L2.25548 11.2569H1.97354Z" fill="#5480B4"/>
<path d="M0.986452 12.9485L0.986452 17.7415H1.26839L1.26839 12.9485H0.986452Z" fill="#5480B4"/>
<path d="M1.23239e-07 13.9353L0 16.7547H0.281938L0.281938 13.9353H1.23239e-07Z" fill="#5480B4"/>
<path d="M4.79297 5.47717L4.79297 25.7767H5.07491L5.07491 5.47717L4.79297 5.47717Z" fill="#5480B4"/>
<path d="M28.1939 8.15557L28.1939 23.2393H27.912L27.912 8.15557H28.1939Z" fill="#5480B4"/>
<path d="M29.0398 10.5521V20.8428H28.7579V10.5521H29.0398Z" fill="#5480B4"/>
<path d="M30.0269 11.2569V19.5741H29.745L29.745 11.2569H30.0269Z" fill="#5480B4"/>
<path d="M31.0133 12.9485V17.7415H30.7314V12.9485H31.0133Z" fill="#5480B4"/>
<path d="M32.0004 13.9353V16.7547H31.7185V13.9353H32.0004Z" fill="#5480B4"/>
<path d="M27.2075 5.47717L27.2075 25.7767H26.9255L26.9255 5.47717L27.2075 5.47717Z" fill="#5480B4"/>
</g>
</g>
<defs>
<filter id="filter0_d_34_60" x="-0.200887" y="5.47717" width="32.4023" height="20.7013" filterUnits="userSpaceOnUse" color-interpolation-filters="sRGB">
<feFlood flood-opacity="0" result="BackgroundImageFix"/>
<feColorMatrix in="SourceAlpha" type="matrix" values="0 0 0 0 0 0 0 0 0 0 0 0 0 0 0 0 0 0 127 0" result="hardAlpha"/>
<feOffset dy="0.200887"/>
<feGaussianBlur stdDeviation="0.100444"/>
<feComposite in2="hardAlpha" operator="out"/>
<feColorMatrix type="matrix" values="0 0 0 0 0 0 0 0 0 0 0 0 0 0 0 0 0 0 0.25 0"/>
<feBlend mode="normal" in2="BackgroundImageFix" result="effect1_dropShadow_34_60"/>
<feBlend mode="normal" in="SourceGraphic" in2="effect1_dropShadow_34_60" result="shape"/>
</filter>
<clipPath id="clip0_34_60">
<rect width="32" height="32" fill="white"/>
</clipPath>
</defs>
</svg>
