<svg width="106" height="59" viewBox="0 0 106 59" fill="none" xmlns="http://www.w3.org/2000/svg">
<g filter="url(#filter0_d_304_125)">
<path d="M17.6973 10.0625C17.6973 11.1474 17.4464 12.1434 16.9445 13.0505C16.4426 13.9398 15.6719 14.6601 14.6322 15.2115C13.5926 15.7629 12.302 16.0386 10.7605 16.0386H7.9105V22.7616H3.31283V4.03305H10.7605C12.2662 4.03305 13.5388 4.29095 14.5785 4.80674C15.6181 5.32253 16.3978 6.03397 16.9176 6.94105C17.4374 7.84814 17.6973 8.88861 17.6973 10.0625ZM10.411 12.4102C11.2893 12.4102 11.9435 12.2057 12.3737 11.7966C12.8039 11.3875 13.019 10.8095 13.019 10.0625C13.019 9.31548 12.8039 8.73743 12.3737 8.32836C11.9435 7.91928 11.2893 7.71474 10.411 7.71474H7.9105V12.4102H10.411Z" fill="#515C7F"/>
<path d="M19.1768 15.2916C19.1768 13.762 19.4636 12.4191 20.0371 11.263C20.6287 10.107 21.4263 9.21765 22.4301 8.59515C23.4339 7.97264 24.5541 7.66138 25.7909 7.66138C26.8485 7.66138 27.7716 7.87482 28.5603 8.30168C29.3669 8.72854 29.9853 9.2888 30.4155 9.98245V7.87481H35.0132V22.7616H30.4155V20.654C29.9674 21.3477 29.34 21.9079 28.5334 22.3348C27.7447 22.7616 26.8216 22.9751 25.7641 22.9751C24.5452 22.9751 23.4339 22.6638 22.4301 22.0413C21.4263 21.401 20.6287 20.5028 20.0371 19.3467C19.4636 18.1729 19.1768 16.8211 19.1768 15.2916ZM30.4155 15.3182C30.4155 14.1799 30.0929 13.2817 29.4476 12.6237C28.8202 11.9656 28.0495 11.6365 27.1353 11.6365C26.2211 11.6365 25.4414 11.9656 24.7961 12.6237C24.1688 13.264 23.8551 14.1533 23.8551 15.2916C23.8551 16.4299 24.1688 17.3369 24.7961 18.0128C25.4414 18.6709 26.2211 18.9999 27.1353 18.9999C28.0495 18.9999 28.8202 18.6709 29.4476 18.0128C30.0929 17.3547 30.4155 16.4565 30.4155 15.3182Z" fill="#515C7F"/>
<path d="M53.1541 7.87481V22.7616H48.5564V20.734C48.0904 21.3921 47.4541 21.9257 46.6474 22.3348C45.8588 22.7261 44.9805 22.9217 44.0125 22.9217C42.8653 22.9217 41.8526 22.6727 40.9743 22.1747C40.096 21.6589 39.4149 20.9208 38.9309 19.9604C38.4469 18.9999 38.2049 17.8705 38.2049 16.5721V7.87481H42.7757V15.9585C42.7757 16.9545 43.0356 17.7282 43.5554 18.2796C44.0753 18.831 44.7743 19.1066 45.6526 19.1066C46.5489 19.1066 47.2569 18.831 47.7767 18.2796C48.2965 17.7282 48.5564 16.9545 48.5564 15.9585V7.87481H53.1541Z" fill="#515C7F"/>
<path d="M61.0542 3.01925V22.7616H56.4566V3.01925H61.0542Z" fill="#515C7F"/>
<path d="M71.2154 22.9751C69.7456 22.9751 68.4192 22.6638 67.2361 22.0413C66.071 21.4188 65.1479 20.5295 64.4668 19.3734C63.8036 18.2173 63.472 16.8656 63.472 15.3182C63.472 13.7886 63.8125 12.4458 64.4937 11.2897C65.1748 10.1158 66.1069 9.21765 67.2899 8.59515C68.4729 7.97264 69.7993 7.66138 71.2692 7.66138C72.739 7.66138 74.0654 7.97264 75.2484 8.59515C76.4315 9.21765 77.3635 10.1158 78.0447 11.2897C78.7258 12.4458 79.0664 13.7886 79.0664 15.3182C79.0664 16.8478 78.7169 18.1996 78.0178 19.3734C77.3367 20.5295 76.3956 21.4188 75.1947 22.0413C74.0116 22.6638 72.6852 22.9751 71.2154 22.9751ZM71.2154 19.0266C72.0937 19.0266 72.8376 18.7065 73.447 18.0662C74.0744 17.4259 74.3881 16.5099 74.3881 15.3182C74.3881 14.1266 74.0833 13.2106 73.4739 12.5703C72.8824 11.93 72.1475 11.6099 71.2692 11.6099C70.3729 11.6099 69.6291 11.93 69.0376 12.5703C68.446 13.1928 68.1503 14.1088 68.1503 15.3182C68.1503 16.5099 68.4371 17.4259 69.0107 18.0662C69.6022 18.7065 70.3371 19.0266 71.2154 19.0266Z" fill="#515C7F"/>
<path d="M45.7574 47.7952C44.3772 47.7952 43.1404 47.5728 42.047 47.1282C40.9536 46.6835 40.0753 46.0255 39.412 45.154C38.7668 44.2824 38.4262 43.2331 38.3903 42.0058H43.2838C43.3555 42.6995 43.5975 43.2331 44.0097 43.6066C44.422 43.9623 44.9597 44.1402 45.6229 44.1402C46.3041 44.1402 46.8418 43.989 47.2362 43.6866C47.6305 43.3665 47.8277 42.9307 47.8277 42.3793C47.8277 41.9169 47.6663 41.5345 47.3437 41.2322C47.039 40.9298 46.6536 40.6808 46.1876 40.4851C45.7394 40.2895 45.0942 40.0672 44.2517 39.8182C43.0328 39.4447 42.038 39.0712 41.2673 38.6977C40.4965 38.3242 39.8333 37.7728 39.2776 37.0436C38.722 36.3143 38.4441 35.3628 38.4441 34.1889C38.4441 32.4459 39.0804 31.0853 40.3531 30.107C41.6257 29.111 43.2838 28.613 45.3272 28.613C47.4064 28.613 49.0824 29.111 50.355 30.107C51.6277 31.0853 52.3088 32.4548 52.3984 34.2156H47.4244C47.3885 33.6109 47.1645 33.1396 46.7522 32.8016C46.3399 32.4459 45.8111 32.268 45.1659 32.268C44.6102 32.268 44.1621 32.4192 43.8215 32.7216C43.4809 33.0062 43.3107 33.4241 43.3107 33.9755C43.3107 34.5802 43.5975 35.0515 44.171 35.3895C44.7446 35.7274 45.6409 36.092 46.8597 36.4833C48.0786 36.8924 49.0645 37.2837 49.8173 37.6572C50.5881 38.0307 51.2513 38.5732 51.8069 39.2846C52.3626 39.996 52.6404 40.912 52.6404 42.0325C52.6404 43.0997 52.3626 44.069 51.8069 44.9405C51.2692 45.812 50.4805 46.5057 49.4409 47.0215C48.4013 47.5373 47.1734 47.7952 45.7574 47.7952Z" fill="#515C7F"/>
<path d="M57.7821 31.1742C56.9755 31.1742 56.3123 30.943 55.7925 30.4806C55.2906 30.0003 55.0397 29.4134 55.0397 28.7197C55.0397 28.0083 55.2906 27.4214 55.7925 26.9589C56.3123 26.4787 56.9755 26.2386 57.7821 26.2386C58.5708 26.2386 59.2161 26.4787 59.718 26.9589C60.2378 27.4214 60.4977 28.0083 60.4977 28.7197C60.4977 29.4134 60.2378 30.0003 59.718 30.4806C59.2161 30.943 58.5708 31.1742 57.7821 31.1742ZM60.0675 32.7216V47.6084H55.4699V32.7216H60.0675Z" fill="#515C7F"/>
<path d="M67.9971 27.866V47.6084H63.3994V27.866H67.9971Z" fill="#515C7F"/>
<path d="M78.0776 43.3398L81.3309 32.7216H86.2243L80.9007 47.6084H75.2276L69.904 32.7216H74.8243L78.0776 43.3398Z" fill="#515C7F"/>
<path d="M87.2454 40.1383C87.2454 38.6087 87.5322 37.2659 88.1058 36.1098C88.6973 34.9537 89.4949 34.0644 90.4987 33.4419C91.5025 32.8194 92.6228 32.5082 93.8596 32.5082C94.9171 32.5082 95.8403 32.7216 96.6289 33.1484C97.4355 33.5753 98.0539 34.1356 98.4841 34.8292V32.7216H103.082V47.6084H98.4841V45.5008C98.036 46.1944 97.4087 46.7547 96.6021 47.1815C95.8134 47.6084 94.8902 47.8218 93.8327 47.8218C92.6138 47.8218 91.5025 47.5106 90.4987 46.8881C89.4949 46.2478 88.6973 45.3496 88.1058 44.1935C87.5322 43.0196 87.2454 41.6679 87.2454 40.1383ZM98.4841 40.165C98.4841 39.0267 98.1615 38.1285 97.5162 37.4704C96.8888 36.8123 96.1181 36.4833 95.2039 36.4833C94.2898 36.4833 93.5101 36.8123 92.8648 37.4704C92.2374 38.1107 91.9237 39 91.9237 40.1383C91.9237 41.2766 92.2374 42.1837 92.8648 42.8596C93.5101 43.5176 94.2898 43.8467 95.2039 43.8467C96.1181 43.8467 96.8888 43.5176 97.5162 42.8596C98.1615 42.2015 98.4841 41.3033 98.4841 40.165Z" fill="#515C7F"/>
<path d="M3.45139 0.366974H51.7497V1.26276H3.45139V0.366974Z" fill="#515C7F"/>
<path d="M3 26.3448H29.6318V27.2406H3V26.3448Z" fill="#515C7F"/>
<path d="M38.2081 52.3307H103.208V53.2265H38.2081V52.3307Z" fill="#515C7F"/>
</g>
<defs>
<filter id="filter0_d_304_125" x="0.592049" y="0.366974" width="105.023" height="57.6754" filterUnits="userSpaceOnUse" color-interpolation-filters="sRGB">
<feFlood flood-opacity="0" result="BackgroundImageFix"/>
<feColorMatrix in="SourceAlpha" type="matrix" values="0 0 0 0 0 0 0 0 0 0 0 0 0 0 0 0 0 0 127 0" result="hardAlpha"/>
<feOffset dy="2.40795"/>
<feGaussianBlur stdDeviation="1.20398"/>
<feComposite in2="hardAlpha" operator="out"/>
<feColorMatrix type="matrix" values="0 0 0 0 0 0 0 0 0 0 0 0 0 0 0 0 0 0 0.25 0"/>
<feBlend mode="normal" in2="BackgroundImageFix" result="effect1_dropShadow_304_125"/>
<feBlend mode="normal" in="SourceGraphic" in2="effect1_dropShadow_304_125" result="shape"/>
</filter>
</defs>
</svg>
